<svg width="81" height="81" viewBox="0 0 81 81" fill="none" xmlns="http://www.w3.org/2000/svg">
<circle cx="40.5" cy="40.5" r="40" fill="white" stroke="#BDBDBD"/>
<path fill-rule="evenodd" clip-rule="evenodd" d="M35.5662 32.2815H31.1245V36.7232H28.1634V32.2815H23.7217V29.3204H28.1634V24.8787H31.1245V29.3204H35.5662V32.2815ZM50.1201 32.2815H54.8135C56.4421 32.2815 57.7746 33.614 57.7746 35.2426V53.0094C57.7746 54.6381 56.4421 55.9706 54.8135 55.9706H31.1244C29.4957 55.9706 28.1632 54.6381 28.1632 53.0094V39.6843H31.1244V53.0094H54.8135V35.2426H48.8172L46.1077 32.2815H38.5272V29.3204H47.4106L50.1201 32.2815ZM42.9688 51.529C38.8825 51.529 35.566 48.2125 35.566 44.1261C35.566 40.0397 38.8825 36.7233 42.9688 36.7233C47.0552 36.7233 50.3717 40.0397 50.3717 44.1261C50.3717 48.2125 47.0552 51.529 42.9688 51.529ZM42.9689 39.6844C45.4119 39.6844 47.4106 41.6831 47.4106 44.1261C47.4106 46.569 45.4119 48.5678 42.9689 48.5678C40.526 48.5678 38.5272 46.569 38.5272 44.1261C38.5272 41.6831 40.526 39.6844 42.9689 39.6844Z" fill="#EE77A0"/>
</svg>
