<svg width="15" height="17" viewBox="0 0 15 17" fill="none" xmlns="http://www.w3.org/2000/svg">
<g clip-path="url(#clip0)">
<path d="M7.13457 0.459717C4.28505 0.459717 1.9668 2.99523 1.9668 6.11179C1.9668 9.97953 6.59145 15.6576 6.78835 15.8974C6.97329 16.1227 7.29619 16.1223 7.4808 15.8974C7.67769 15.6576 12.3023 9.97953 12.3023 6.11179C12.3023 2.99523 9.98407 0.459717 7.13457 0.459717ZM7.13457 8.95551C5.7009 8.95551 4.53456 7.67982 4.53456 6.11179C4.53456 4.54376 5.70093 3.2681 7.13457 3.2681C8.56821 3.2681 9.73455 4.54379 9.73455 6.11182C9.73455 7.67985 8.56821 8.95551 7.13457 8.95551Z" fill="#EE77A0"/>
</g>
<defs>
<clipPath id="clip0">
<rect y="0.459717" width="14.2692" height="15.6066" fill="white"/>
</clipPath>
</defs>
</svg>
