<svg width="66" height="67" viewBox="0 0 66 67" fill="none" xmlns="http://www.w3.org/2000/svg">
<g clip-path="url(#clip0)">
<path d="M41.3218 20.0615C43.2137 18.2734 45.7199 17.28 48.3231 17.2864C49.6408 17.2864 52.8804 18.2772 54.0379 19.0313L66.0004 26.6496V24.4561C66.0004 24.233 65.928 24.0159 65.7941 23.8374L56.354 11.251C55.5984 10.2431 54.6185 9.42512 53.492 8.86172C52.3654 8.29832 51.1231 8.00505 49.8635 8.00513C44.7115 8.00513 41.25 11.3206 41.25 16.2551V18.3176C41.25 18.3319 41.25 18.3462 41.2509 18.3606L41.3218 20.0615Z" fill="white"/>
<path d="M50.5313 36.5736C49.7538 35.5978 49.0512 34.6726 48.4511 33.8226C46.3252 37.1017 43.8557 40.7123 42.4064 42.1615C42.3549 42.2131 42.3019 42.2639 42.249 42.3149L42.2813 43.0892V45.9237L39.3307 53.841L36.3958 56.7759C36.285 56.8867 36.2009 57.0213 36.1499 57.1695C36.0989 57.3177 36.0823 57.4756 36.1015 57.6311C36.1206 57.7867 36.175 57.9358 36.2604 58.0672C36.3458 58.1986 36.4601 58.3088 36.5945 58.3894C37.7841 59.1032 39.2479 59.608 40.7432 59.608C41.5559 59.6135 42.3613 59.4541 43.1107 59.1395C43.86 58.8249 44.5378 58.3615 45.103 57.7775C45.998 56.8826 46.7753 55.7062 47.5272 54.5685C48.2024 53.5469 48.8401 52.5819 49.4784 51.9439C50.0056 51.4236 50.5932 50.9683 51.2285 50.5875C51.9884 50.1271 52.6914 49.5787 53.323 48.9537C53.6157 48.665 53.8472 48.3202 54.0035 47.9399C54.1598 47.5596 54.2378 47.1517 54.2327 46.7406C54.227 44.5642 52.1645 42.2108 50.5313 40.5768V36.5736Z" fill="white"/>
<path d="M65.523 28.7915L52.9183 20.7633C52.1305 20.2413 49.2378 19.3489 48.3231 19.3489C47.2545 19.346 46.1958 19.5542 45.2079 19.9616C44.22 20.369 43.3223 20.9675 42.5663 21.7227C37.0439 27.2097 23.5849 40.4988 17.8913 45.3784C16.0909 46.922 10.2383 49.42 7.98394 50.314L0.885459 51.3281C0.639721 51.3632 0.414887 51.4857 0.252233 51.6733C0.0895798 51.8608 2.2216e-05 52.1007 2.08063e-06 52.3489C-0.000812697 53.163 0.23769 53.9593 0.685851 54.6389C1.13401 55.3184 1.77205 55.8513 2.52063 56.1711L3.82401 56.7307C5.20264 57.3214 6.68501 57.6318 8.1848 57.644C9.6846 57.6562 11.1718 57.3698 12.5599 56.8016C13.6376 56.6416 14.7382 56.7464 15.7664 57.107C17.0745 57.5646 18.2172 57.7937 19.1852 57.7937C19.8412 57.811 20.4922 57.675 21.0862 57.3962C23.0615 56.4087 23.544 54.654 24.1026 52.6223C24.2767 51.989 24.4567 51.334 24.6973 50.6125C25.0996 49.4053 28.7933 47.6298 31.7613 46.203C35.2517 44.5253 38.861 42.7904 40.9482 40.7031C42.5993 39.0521 45.936 33.9491 47.7783 31.0537C47.8502 30.941 47.9498 30.8486 48.0676 30.7854C48.1854 30.7222 48.3175 30.6903 48.4511 30.6928C48.5848 30.6953 48.7156 30.7321 48.831 30.7997C48.9463 30.8673 49.0424 30.9634 49.1099 31.0787C51.6954 35.361 58.7559 43.0799 64.2235 48.8011C64.3659 48.9499 64.5495 49.0527 64.7507 49.0962C64.9519 49.1398 65.1616 49.1221 65.3527 49.0454C65.5438 48.9688 65.7075 48.8367 65.8229 48.6661C65.9383 48.4956 66 48.2944 66 48.0886V29.6614C66 29.488 65.9564 29.3174 65.873 29.1654C65.7896 29.0133 65.6693 28.8847 65.523 28.7915ZM41.25 27.5989C41.046 27.5989 40.8467 27.5384 40.6771 27.4251C40.5075 27.3118 40.3753 27.1507 40.2973 26.9623C40.2192 26.7739 40.1988 26.5665 40.2386 26.3665C40.2784 26.1664 40.3766 25.9827 40.5208 25.8385C40.665 25.6942 40.8488 25.596 41.0488 25.5562C41.2489 25.5164 41.4562 25.5369 41.6446 25.6149C41.8331 25.693 41.9941 25.8251 42.1075 25.9947C42.2208 26.1643 42.2813 26.3637 42.2813 26.5677C42.2813 26.8412 42.1726 27.1035 41.9792 27.2969C41.7858 27.4903 41.5235 27.5989 41.25 27.5989ZM45.375 26.5677C44.9671 26.5677 44.5683 26.4467 44.2291 26.2201C43.89 25.9934 43.6256 25.6713 43.4695 25.2944C43.3134 24.9176 43.2726 24.5029 43.3521 24.1028C43.4317 23.7027 43.6281 23.3352 43.9166 23.0467C44.205 22.7583 44.5725 22.5619 44.9726 22.4823C45.3727 22.4027 45.7874 22.4435 46.1643 22.5997C46.5412 22.7558 46.8633 23.0201 47.0899 23.3593C47.3165 23.6985 47.4375 24.0972 47.4375 24.5052C47.4375 25.0522 47.2202 25.5768 46.8334 25.9636C46.4466 26.3504 45.922 26.5677 45.375 26.5677Z" fill="white"/>
</g>
<defs>
<clipPath id="clip0">
<rect y="0.786377" width="66" height="66" fill="white"/>
</clipPath>
</defs>
</svg>
