<svg width="57" height="58" viewBox="0 0 57 58" fill="none" xmlns="http://www.w3.org/2000/svg">
<g clip-path="url(#clip0)">
<path d="M11.4941 42.9169C12.2639 45.0756 14.3078 46.6342 16.7277 46.6342C19.1475 46.6342 21.1915 45.0756 21.9612 42.9169H11.4941Z" fill="white"/>
<path d="M35.0381 42.9169C35.8077 45.0756 37.8517 46.6342 40.2715 46.6342C42.6913 46.6342 44.7353 45.0756 45.5051 42.9169H35.0381Z" fill="white"/>
<path d="M40.2716 35.482C37.8517 35.482 35.8078 37.0406 35.0381 39.1993H45.5052C44.7354 37.0406 42.6916 35.482 40.2716 35.482Z" fill="white"/>
<path d="M53.2826 17.2376V6.36247C53.2826 3.2877 50.7813 0.786377 47.7066 0.786377H9.29345C6.21868 0.786377 3.71736 3.2877 3.71736 6.36247V17.2376C1.55859 18.0073 0 20.0513 0 22.4712V52.2103C0 55.2851 2.50132 57.7864 5.57609 57.7864H51.4239C54.4987 57.7864 57 55.2851 57 52.2103V22.4712C57 20.0513 55.4414 18.0073 53.2826 17.2376ZM16.7283 50.3516C11.6036 50.3516 7.43483 46.1828 7.43483 41.0581C7.43483 35.9334 11.6036 31.7647 16.7283 31.7647C21.8529 31.7647 26.0217 35.9334 26.0217 41.0581C26.0217 46.1828 21.8529 50.3516 16.7283 50.3516ZM7.43483 26.1886C7.43483 25.1621 8.267 24.3298 9.29356 24.3298C10.3201 24.3298 11.1523 25.162 11.1523 26.1886C11.1523 27.215 10.3201 28.0473 9.29356 28.0473C8.267 28.0473 7.43483 27.215 7.43483 26.1886ZM40.2717 50.3516C35.1471 50.3516 30.9783 46.1828 30.9783 41.0581C30.9783 35.9334 35.1471 31.7647 40.2717 31.7647C45.3964 31.7647 49.5652 35.9334 49.5652 41.0581C49.5652 46.1828 45.3964 50.3516 40.2717 50.3516ZM47.7066 28.0473H16.7283C15.7022 28.0473 14.8695 27.2153 14.8695 26.1886C14.8695 25.1618 15.7022 24.3298 16.7283 24.3298H47.7066C48.7327 24.3298 49.5653 25.1618 49.5653 26.1886C49.5652 27.2153 48.7327 28.0473 47.7066 28.0473ZM49.5652 16.8951H44.2437L13.5119 8.29023C12.5282 8.01191 11.4983 8.59037 11.2212 9.57896C10.9441 10.567 11.5213 11.5932 12.5099 11.8696L30.4581 16.8952H7.43483V6.36247C7.43483 5.33758 8.26867 4.50373 9.29356 4.50373H47.7066C48.7314 4.50373 49.5653 5.33758 49.5653 6.36247V16.8951H49.5652Z" fill="white"/>
<path d="M16.7287 35.482C14.3087 35.482 12.2648 37.0406 11.4951 39.1993H21.9622C21.1925 37.0406 19.1485 35.482 16.7287 35.482Z" fill="white"/>
</g>
<defs>
<clipPath id="clip0">
<rect y="0.786377" width="57" height="57" fill="white"/>
</clipPath>
</defs>
</svg>
