<svg width="129" height="80" viewBox="0 0 129 80" fill="none" xmlns="http://www.w3.org/2000/svg">
<g clip-path="url(#clip0)">
<path d="M22.6736 43.5509C24.2816 37.7083 27.1761 29.0249 25.6485 24.5492C25.3536 23.6916 25.8361 22.7804 26.6937 22.4856C30.0438 21.3331 31.8394 19.5107 32.5362 17.1254C32.7506 16.4018 33.7691 16.3214 34.0907 16.9914C34.8679 18.5727 35.9667 21.5475 37.2531 27.0685C37.7356 29.6949 37.9232 31.1958 38.0304 32.0534C38.1108 32.7234 37.8428 33.3666 37.3603 33.849L35.4307 35.6715C34.8947 36.1807 33.9835 36.0467 33.6083 35.4035L32.027 32.6162C31.8662 32.3482 31.491 32.2946 31.2766 32.5358L30.7942 33.0718C30.419 33.5006 30.3654 34.117 30.6602 34.5995L34.8411 41.6212C35.3503 42.4789 35.1895 43.5509 34.4659 44.2209L33.0722 45.5341C32.4022 46.1505 31.3302 46.0433 30.821 45.2929L30.0706 44.2209C29.8562 43.9261 29.4005 43.9529 29.2397 44.2745C28.4893 45.6681 26.8009 48.8306 25.3804 51.0283C24.8444 51.8591 23.5848 51.6715 23.3436 50.7067C23.1024 49.715 22.8612 48.8574 22.6736 48.1606C22.2716 46.633 22.2716 45.0517 22.6736 43.5509Z" fill="url(#paint0_linear)"/>
<path d="M25.1123 57.8896C24.7906 57.0588 25.0855 56.094 25.8359 55.5848C30.1776 52.5831 38.1106 45.5345 38.2178 44.7305C38.2982 44.0605 36.4757 40.63 35.5645 38.9415C35.2697 38.4055 35.4037 37.7355 35.8861 37.3335L38.5394 35.1895C38.5394 35.1895 39.8794 41.4072 43.6851 44.7037C43.6851 44.7037 48.2412 48.4826 49.0453 52.5295C49.1793 53.1727 48.8309 53.7891 48.268 54.0839C47.1424 54.6467 46.0972 55.5312 45.3468 56.228C44.8375 56.7104 43.9799 56.5496 43.6851 55.9064C43.0151 54.4323 41.9699 52.1275 41.2463 50.7874C40.9515 50.2514 40.2546 50.1442 39.799 50.5194C37.253 52.7975 29.7756 58.506 27.1491 61.2665C26.8007 61.6417 26.1575 61.4809 26.0503 60.9717C25.7555 59.7389 25.4071 58.6668 25.1123 57.8896Z" fill="url(#paint1_linear)"/>
<path d="M39.2358 75.2027C39.745 76.0603 39.1018 77.1323 38.1102 77.1055C30.9276 76.8643 27.6311 68.3149 28.1135 65.9028C28.596 63.4908 31.7048 59.3099 38.7802 55.3702C39.477 54.995 40.3615 55.2094 40.7635 55.9062C41.4603 57.0586 42.1303 58.1843 42.6395 59.0151C43.1755 59.8459 44.3012 60.0067 45.0516 59.3635C45.802 58.7203 46.6596 57.8894 47.2224 57.4606C47.4368 57.2998 47.678 57.139 47.946 57.005C48.8841 56.4958 50.0097 57.1122 50.1437 58.1575C50.5993 62.2312 51.0281 71.5846 45.9628 74.9883C45.3196 75.4171 44.4352 75.2563 44.0063 74.6131C43.3095 73.6214 42.8539 73.005 42.1571 72.2814C41.8623 71.9866 41.9159 71.5042 42.2375 71.2362C44.8908 69.2529 44.1403 62.7404 39.6378 63.1424C34.3313 63.6248 34.3581 66.7337 34.5725 68.6365C34.9209 71.5846 36.3949 72.4422 37.1722 72.6834C37.5206 72.7906 37.8422 73.005 38.0566 73.2998C38.4854 73.9699 38.8874 74.6399 39.2358 75.2027Z" fill="url(#paint2_linear)"/>
<path d="M24.2007 3.05463C16.5893 -2.0911 7.95946 -0.21505 2.94773 4.71627C-2.86801 10.5856 0.750079 25.4868 6.59262 29.8553C7.02144 30.1769 7.61105 30.0697 7.90586 29.6409L11.2827 24.7632C11.8188 24.0128 12.998 24.388 12.9712 25.326C12.8908 28.0061 12.7836 31.7582 12.7568 33.6878C12.7568 34.0898 12.998 34.4382 13.3732 34.5722C15.8389 35.4298 16.8573 38.5119 18.3581 40.924C18.7601 41.5672 19.6982 41.4868 19.993 40.8168C22.4318 35.2422 23.0482 26.0764 21.8958 22.2975C21.735 21.7615 22.0566 21.2255 22.5926 21.1183C23.8791 20.8503 26.1303 20.0463 28.864 17.5806C33.0181 13.8285 31.8121 8.22716 24.2007 3.05463ZM20.6898 13.1049C19.3229 14.7129 16.8305 15.4365 15.0616 14.4717C13.8556 13.8285 11.8456 12.6761 10.6931 12.0329C10.2107 11.7648 10.0767 11.1484 10.3983 10.6928C11.6312 8.87038 12.8104 6.88713 13.2928 6.08311C13.4268 5.8419 13.6948 5.6543 13.9628 5.6275C18.7333 5.11828 22.4318 11.0144 20.6898 13.1049Z" fill="url(#paint3_linear)"/>
<path d="M83.6334 16.5717C85.1962 16.5717 86.3787 16.9244 87.1809 17.6298C87.9831 18.3213 88.3842 19.2479 88.3842 20.4097C88.3842 20.5895 88.3565 20.8868 88.3012 21.3018C88.1076 22.3391 87.6581 23.238 86.9527 23.9987C86.2474 24.7456 85.3345 25.2711 84.2143 25.5754L86.5793 31.2598H82.0774L80.0443 25.8451H79.6294L78.6959 31.2598H74.6089L77.1814 16.5717H83.6334ZM80.1273 23.1067H82.1189C83.253 23.1067 83.9169 22.5949 84.1105 21.5715C84.1244 21.4885 84.1313 21.3709 84.1313 21.2188C84.1313 20.4166 83.6541 20.0155 82.6998 20.0155H80.6875L80.1273 23.1067ZM94.6768 19.4761C95.5481 19.4761 96.2673 19.6559 96.8344 20.0155C97.4153 20.3751 97.7956 20.8592 97.9754 21.4677L98.3073 19.6214H102.374L100.299 31.2598H96.2535L96.5854 29.4134C96.1982 30.0219 95.6726 30.506 95.0087 30.8656C94.3449 31.2252 93.598 31.405 92.7682 31.405C91.5096 31.405 90.5207 31.0039 89.8015 30.2017C89.0962 29.3857 88.7435 28.2585 88.7435 26.8202C88.7435 26.3223 88.7988 25.7414 88.9095 25.0775C89.1169 23.9296 89.5042 22.9338 90.0712 22.0901C90.6383 21.2464 91.3229 20.6033 92.1251 20.1607C92.9272 19.7043 93.7778 19.4761 94.6768 19.4761ZM95.5896 23.0444C94.9534 23.0444 94.4002 23.2588 93.93 23.6875C93.4735 24.1025 93.1762 24.6833 93.0379 25.4302C92.9964 25.6376 92.9756 25.8382 92.9756 26.0318C92.9756 26.6127 93.1347 27.0622 93.4528 27.3803C93.7709 27.6846 94.1997 27.8367 94.739 27.8367C95.3476 27.8367 95.887 27.6223 96.3572 27.1936C96.8413 26.7648 97.1456 26.177 97.27 25.4302C97.3115 25.2227 97.3323 25.0222 97.3323 24.8286C97.3323 24.2615 97.1732 23.8258 96.8551 23.5216C96.537 23.2035 96.1152 23.0444 95.5896 23.0444ZM109.793 19.4761C111.356 19.4761 112.594 19.898 113.507 20.7416C114.419 21.5715 114.883 22.7263 114.897 24.2062H110.581C110.54 23.8051 110.409 23.5008 110.187 23.2934C109.98 23.0721 109.676 22.9614 109.274 22.9614C108.777 22.9614 108.334 23.1689 107.947 23.5838C107.573 23.9987 107.31 24.6142 107.158 25.4302C107.103 25.8174 107.075 26.0802 107.075 26.2185C107.075 26.7717 107.193 27.1936 107.428 27.484C107.677 27.7606 108.002 27.8989 108.403 27.8989C108.804 27.8989 109.15 27.7883 109.44 27.567C109.731 27.3457 109.959 27.0414 110.125 26.6542H114.461C113.921 28.1341 113.064 29.2958 111.888 30.1395C110.727 30.9832 109.392 31.405 107.884 31.405C106.363 31.405 105.146 30.9762 104.233 30.1187C103.334 29.2474 102.885 28.0511 102.885 26.5297C102.885 26.1701 102.933 25.6861 103.03 25.0775C103.237 23.9296 103.659 22.9338 104.295 22.0901C104.932 21.2464 105.727 20.6033 106.681 20.1607C107.635 19.7043 108.673 19.4761 109.793 19.4761ZM122.742 19.4761C124.291 19.4761 125.508 19.8841 126.393 20.7001C127.278 21.5161 127.721 22.6226 127.721 24.0195C127.721 24.3652 127.686 24.7663 127.617 25.2227C127.493 25.693 127.396 26.0111 127.327 26.177H119.651C119.637 26.2877 119.63 26.4467 119.63 26.6542C119.63 27.65 120.093 28.1479 121.02 28.1479C121.421 28.1479 121.767 28.0511 122.057 27.8574C122.362 27.6638 122.59 27.408 122.742 27.0899H127.057C126.587 28.3623 125.778 29.3996 124.63 30.2017C123.482 31.0039 122.154 31.405 120.647 31.405C119.125 31.405 117.922 30.9832 117.037 30.1395C116.152 29.2958 115.709 28.1341 115.709 26.6542C115.709 26.2116 115.751 25.7414 115.834 25.2435C116.041 24.0679 116.47 23.0444 117.12 22.1731C117.784 21.3018 118.6 20.6379 119.568 20.1815C120.536 19.7112 121.594 19.4761 122.742 19.4761ZM123.613 24.4759C123.641 24.3652 123.655 24.2131 123.655 24.0195C123.655 23.5769 123.516 23.245 123.24 23.0237C122.963 22.7885 122.61 22.671 122.182 22.671C121.642 22.671 121.179 22.8231 120.792 23.1274C120.405 23.4317 120.128 23.8812 119.962 24.4759H123.613Z" fill="white"/>
<path d="M81.9929 53.734C83.6979 53.734 85.0482 54.1942 86.044 55.1145C87.0398 56.0198 87.5453 57.2796 87.5604 58.894H82.853C82.8077 58.4565 82.6644 58.1246 82.4229 57.8982C82.1966 57.6568 81.8647 57.5361 81.4271 57.5361C80.884 57.5361 80.4012 57.7625 79.9787 58.2151C79.5713 58.6677 79.2847 59.3391 79.1187 60.2293C79.0583 60.6518 79.0282 60.9385 79.0282 61.0893C79.0282 61.6928 79.1564 62.153 79.4129 62.4699C79.6845 62.7716 80.0391 62.9225 80.4766 62.9225C80.9142 62.9225 81.2914 62.8018 81.6082 62.5604C81.925 62.319 82.174 61.9871 82.3551 61.5646H87.0851C86.4967 63.179 85.5612 64.4464 84.2788 65.3667C83.0114 66.2871 81.5554 66.7473 79.9108 66.7473C78.2511 66.7473 76.9234 66.2796 75.9276 65.3441C74.9469 64.3936 74.4565 63.0885 74.4565 61.4288C74.4565 61.0365 74.5094 60.5084 74.615 59.8446C74.8413 58.5923 75.3015 57.506 75.9955 56.5856C76.6895 55.6652 77.5571 54.9637 78.5982 54.4808C79.6392 53.9829 80.7708 53.734 81.9929 53.734ZM103.203 53.8924L100.962 66.5889H96.5037L96.8658 64.4841C96.3679 65.1631 95.7342 65.7062 94.9647 66.1136C94.2103 66.5059 93.3729 66.702 92.4526 66.702C91.2304 66.702 90.2799 66.3475 89.6009 65.6383C88.922 64.9292 88.5825 63.9409 88.5825 62.6736C88.5825 62.2209 88.6278 61.7457 88.7183 61.2478L90.031 53.8924H94.4442L93.2447 60.7046C93.2145 60.8404 93.1994 61.029 93.1994 61.2704C93.1994 61.8286 93.3503 62.2662 93.652 62.583C93.9689 62.8848 94.4064 63.0357 94.9647 63.0357C95.6286 63.0357 96.1868 62.8244 96.6394 62.402C97.1072 61.9795 97.4089 61.3835 97.5447 60.6141V60.7272L98.7442 53.8924H103.203ZM109.648 56.2688C110.297 55.5144 111.028 54.9108 111.843 54.4582C112.673 54.0056 113.518 53.7793 114.378 53.7793L113.518 58.5319H112.25C111.255 58.5319 110.47 58.7281 109.897 59.1204C109.338 59.4976 108.976 60.1614 108.81 61.112L107.837 66.5889H103.401L105.619 53.8924H110.078L109.648 56.2688ZM121.624 53.734C123.314 53.734 124.642 54.1791 125.607 55.0693C126.573 55.9595 127.056 57.1665 127.056 58.6904C127.056 59.0676 127.018 59.5051 126.942 60.003C126.807 60.516 126.701 60.863 126.626 61.0441H118.252C118.237 61.1648 118.229 61.3383 118.229 61.5646C118.229 62.6509 118.735 63.1941 119.745 63.1941C120.183 63.1941 120.56 63.0885 120.877 62.8772C121.209 62.666 121.458 62.3869 121.624 62.0399H126.331C125.818 63.428 124.936 64.5595 123.683 65.4346C122.431 66.3097 120.983 66.7473 119.338 66.7473C117.678 66.7473 116.366 66.2871 115.4 65.3667C114.435 64.4464 113.952 63.179 113.952 61.5646C113.952 61.0818 113.997 60.5688 114.088 60.0256C114.314 58.7432 114.782 57.6267 115.491 56.6761C116.215 55.7256 117.105 55.0014 118.161 54.5035C119.217 53.9905 120.372 53.734 121.624 53.734ZM122.574 59.1883C122.605 59.0676 122.62 58.9016 122.62 58.6904C122.62 58.2075 122.469 57.8454 122.167 57.604C121.865 57.3475 121.481 57.2193 121.013 57.2193C120.424 57.2193 119.919 57.3853 119.497 57.7172C119.074 58.0491 118.772 58.5395 118.591 59.1883H122.574Z" fill="url(#paint4_linear)"/>
<path d="M80.9828 37.7813C80.915 37.7717 80.8182 37.7668 80.6923 37.7668C80.3535 37.7668 80.0921 37.8346 79.9081 37.9701C79.7242 38.096 79.5935 38.3138 79.516 38.6236H80.8375L80.4164 41.0052H79.0804L78.0638 46.7705H75.203L76.2195 41.0052H75.3046L75.7113 38.6236H76.6407C76.8343 37.5684 77.2893 36.7551 78.0057 36.1839C78.7318 35.6127 79.6709 35.3271 80.823 35.3271C80.9489 35.3271 81.1474 35.3368 81.4184 35.3562L80.9828 37.7813ZM85.9051 38.522C86.6312 38.522 87.2701 38.6623 87.822 38.9431C88.3835 39.2142 88.8192 39.6111 89.129 40.1339C89.4388 40.6567 89.5937 41.2763 89.5937 41.9927C89.5937 42.2929 89.5646 42.6124 89.5065 42.9512C89.3613 43.7548 89.0564 44.4518 88.5917 45.0424C88.127 45.6329 87.5509 46.088 86.8635 46.4075C86.1762 46.7173 85.4355 46.8722 84.6417 46.8722C83.8962 46.8722 83.2427 46.7366 82.6812 46.4655C82.1197 46.1848 81.6791 45.783 81.3597 45.2602C81.0499 44.7277 80.895 44.1033 80.895 43.3869C80.895 43.0867 80.924 42.7721 80.9821 42.4429C81.1273 41.6394 81.4323 40.9423 81.897 40.3517C82.3714 39.7612 82.9571 39.311 83.6542 39.0012C84.3512 38.6817 85.1015 38.522 85.9051 38.522ZM85.542 40.9907C85.1548 40.9907 84.8062 41.1359 84.4964 41.4264C84.1866 41.7168 83.9785 42.138 83.872 42.6898C83.8429 42.8641 83.8284 43.019 83.8284 43.1545C83.8284 43.5611 83.9301 43.8709 84.1334 44.0839C84.3464 44.2969 84.6174 44.4034 84.9466 44.4034C85.3339 44.4034 85.6824 44.2582 85.9922 43.9677C86.302 43.6773 86.5102 43.2513 86.6167 42.6898C86.6457 42.5155 86.6602 42.3606 86.6602 42.2251C86.6602 41.8185 86.5537 41.5135 86.3407 41.3102C86.1374 41.0972 85.8712 40.9907 85.542 40.9907ZM93.9601 40.1484C94.3764 39.6644 94.8459 39.2771 95.3687 38.9867C95.9012 38.6962 96.4433 38.551 96.9952 38.551L96.4433 41.6006H95.6301C94.9911 41.6006 94.4877 41.7265 94.1198 41.9782C93.7616 42.2203 93.5292 42.6462 93.4227 43.2562L92.7983 46.7705H89.952L91.3751 38.6236H94.236L93.9601 40.1484ZM102.902 43.6337C102.892 43.6821 102.887 43.7499 102.887 43.837C102.887 44.0113 102.936 44.1372 103.033 44.2146C103.129 44.2921 103.289 44.3308 103.512 44.3308H104.296L103.846 46.7705H102.684C100.874 46.7705 99.9685 46.0008 99.9685 44.4615C99.9685 44.1904 99.9975 43.8951 100.056 43.5757L100.52 41.0052H99.4602L99.8813 38.6236H100.941L101.29 36.6486H104.136L103.788 38.6236H105.269L104.848 41.0052H103.367L102.902 43.6337ZM112.223 38.551C113.016 38.551 113.626 38.7785 114.052 39.2335C114.488 39.6789 114.706 40.3082 114.706 41.1214C114.706 41.4119 114.677 41.7168 114.619 42.0363L113.791 46.7705H110.945L111.714 42.3994C111.743 42.2541 111.758 42.1234 111.758 42.0073C111.758 41.6491 111.656 41.3731 111.453 41.1795C111.259 40.9859 110.983 40.8891 110.625 40.8891C110.219 40.8891 109.87 41.0101 109.58 41.2521C109.289 41.4942 109.091 41.8378 108.984 42.2832L108.2 46.7705H105.339L107.227 36.0242H110.088L109.391 39.9742C109.71 39.5385 110.112 39.1948 110.596 38.9431C111.09 38.6817 111.632 38.551 112.223 38.551ZM120.436 38.522C121.52 38.522 122.372 38.8076 122.991 39.3788C123.611 39.95 123.921 40.7245 123.921 41.7023C123.921 41.9443 123.897 42.2251 123.848 42.5446C123.761 42.8738 123.693 43.0964 123.645 43.2126H118.272C118.262 43.29 118.257 43.4014 118.257 43.5466C118.257 44.2437 118.582 44.5922 119.23 44.5922C119.511 44.5922 119.753 44.5244 119.956 44.3889C120.169 44.2533 120.329 44.0742 120.436 43.8516H123.456C123.127 44.7423 122.561 45.4684 121.757 46.0299C120.953 46.5914 120.024 46.8722 118.969 46.8722C117.904 46.8722 117.062 46.5769 116.442 45.9863C115.822 45.3958 115.513 44.5825 115.513 43.5466C115.513 43.2368 115.542 42.9076 115.6 42.5591C115.745 41.7362 116.045 41.0198 116.5 40.4098C116.965 39.7999 117.536 39.3352 118.214 39.0157C118.891 38.6866 119.632 38.522 120.436 38.522ZM121.045 42.0218C121.065 41.9443 121.074 41.8378 121.074 41.7023C121.074 41.3925 120.978 41.1601 120.784 41.0052C120.59 40.8407 120.344 40.7584 120.043 40.7584C119.666 40.7584 119.342 40.8649 119.07 41.0779C118.799 41.2908 118.606 41.6055 118.49 42.0218H121.045Z" fill="white"/>
</g>
<defs>
<linearGradient id="paint0_linear" x1="30.2083" y1="16.5327" x2="30.2083" y2="51.5543" gradientUnits="userSpaceOnUse">
<stop stop-color="#FF6D9E"/>
<stop offset="1" stop-color="#F980B3"/>
</linearGradient>
<linearGradient id="paint1_linear" x1="37.0287" y1="35.1895" x2="37.0287" y2="61.4724" gradientUnits="userSpaceOnUse">
<stop stop-color="#FF6D9E"/>
<stop offset="1" stop-color="#F980B3"/>
</linearGradient>
<linearGradient id="paint2_linear" x1="39.2338" y1="55.1875" x2="39.2338" y2="77.106" gradientUnits="userSpaceOnUse">
<stop stop-color="#FF6D9E"/>
<stop offset="1" stop-color="#F980B3"/>
</linearGradient>
<linearGradient id="paint3_linear" x1="15.6095" y1="-0.00732422" x2="15.6095" y2="41.3653" gradientUnits="userSpaceOnUse">
<stop stop-color="#FF6D9E"/>
<stop offset="1" stop-color="#F980B3"/>
</linearGradient>
<linearGradient id="paint4_linear" x1="100.805" y1="41.5889" x2="100.805" y2="75.6257" gradientUnits="userSpaceOnUse">
<stop stop-color="#FF6E9F"/>
<stop offset="1" stop-color="#F980B3"/>
</linearGradient>
<clipPath id="clip0">
<path d="M0 0H128.375V80H0V0Z" fill="white"/>
</clipPath>
</defs>
</svg>
