<svg width="20" height="20" viewBox="0 0 20 20" fill="none" xmlns="http://www.w3.org/2000/svg">
<path d="M7.43408 8.32157L12.6452 5.31443C11.559 3.77436 9.52819 3.22935 7.81694 4.01871C8.2992 4.9057 8.39392 5.95242 8.07872 6.91157C7.92731 7.40807 7.71053 7.88223 7.43408 8.32157Z" fill="black"/>
<path d="M15.9182 9.28571L16.1496 9.15178C16.3591 9.03119 16.5121 8.83218 16.5747 8.59867C16.6372 8.36516 16.6043 8.11635 16.4832 7.90714C16.4782 7.89786 16.4732 7.88857 16.4686 7.87893C16.2092 7.4611 15.6648 7.32493 15.2393 7.57143L12.2686 9.28571H15.9182Z" fill="black"/>
<path d="M4.10693 11.7857H18.3926C18.3915 10.8 17.5927 10.0012 16.6069 10H5.89265C4.90691 10.0012 4.10811 10.8 4.10693 11.7857Z" fill="black"/>
<path d="M19.3055 12.6722C19.2414 12.5645 19.125 12.4989 18.9998 12.5H3.49976C3.37492 12.5 3.25914 12.5652 3.19438 12.6719C3.12963 12.7786 3.1253 12.9114 3.18298 13.0222L6.52298 19.4243C6.70712 19.7787 7.07358 20.0008 7.47298 20H15.0265C15.4259 20.0008 15.7924 19.7787 15.9765 19.4243L19.3165 13.0225C19.3754 12.9121 19.3712 12.7787 19.3055 12.6722V12.6722ZM8.18655 19.2522C8.00784 19.3356 7.79536 19.2583 7.71191 19.0797L5.21191 13.7225C5.13209 13.5445 5.20991 13.3353 5.3867 13.2528C5.56349 13.1703 5.77381 13.2449 5.85905 13.4204L8.35905 18.7775C8.44246 18.9562 8.36523 19.1687 8.18655 19.2522ZM10.2483 19.2786C10.2253 19.2834 10.2019 19.2858 10.1783 19.2857C10.0087 19.2856 9.86261 19.1662 9.82869 19L8.75726 13.6429C8.72603 13.453 8.85091 13.2725 9.03963 13.2347C9.22836 13.197 9.41305 13.3156 9.45726 13.5029L10.5287 18.86C10.5664 19.0525 10.4419 19.2393 10.2498 19.2786H10.2483ZM12.6712 19C12.6372 19.1663 12.4909 19.2858 12.3212 19.2857C12.2972 19.2859 12.2733 19.2835 12.2498 19.2786C12.1569 19.2597 12.0754 19.2046 12.0232 19.1256C11.9709 19.0465 11.9522 18.95 11.9712 18.8572L13.0426 13.5C13.0638 13.3712 13.1536 13.2642 13.2767 13.221C13.3999 13.1777 13.5368 13.2051 13.6339 13.2924C13.7309 13.3797 13.7726 13.513 13.7426 13.64L12.6712 19ZM17.2876 13.7225L14.7876 19.0797C14.7349 19.1973 14.6229 19.2774 14.4945 19.2892C14.3662 19.301 14.2414 19.2428 14.168 19.1368C14.0947 19.0308 14.0842 18.8935 14.1405 18.7775L16.6405 13.4204C16.6932 13.3028 16.8052 13.2227 16.9336 13.2108C17.0619 13.199 17.1867 13.2573 17.2601 13.3633C17.3334 13.4693 17.3439 13.6066 17.2876 13.7225V13.7225Z" fill="black"/>
<path d="M13.6147 4.7547C14.392 4.30647 15.3855 4.57316 15.8339 5.35041C15.8734 5.42039 15.9079 5.49307 15.9371 5.56791L18.885 4.23863C18.9799 4.19662 19.0534 4.11747 19.0882 4.0197C19.1193 3.93502 19.1133 3.8412 19.0718 3.76113C17.5629 0.857199 14.3968 0.166485 13.1068 0.0043418C12.9973 -0.0102003 12.8868 0.0228177 12.8032 0.0950561C12.7241 0.16213 12.6784 0.260587 12.6782 0.364342V4.26184C12.8957 4.47386 13.0917 4.7069 13.2632 4.95756L13.6147 4.7547Z" fill="black"/>
<path d="M14.6614 5.28247C14.4286 5.21967 14.1804 5.25232 13.9718 5.37319L13.3239 5.74533L7.19141 9.28568H10.8396L14.8818 6.9514C15.0921 6.83136 15.2456 6.63216 15.3082 6.39821C15.3707 6.16425 15.337 5.915 15.2146 5.70604C15.0942 5.4966 14.895 5.34406 14.6614 5.28247V5.28247Z" fill="black"/>
<path d="M6.67588 5.89907C6.42837 5.63885 6.09119 5.48246 5.73267 5.46157C5.55654 5.4588 5.38724 5.5296 5.26553 5.65693C5.02958 5.92004 4.91321 6.26915 4.9441 6.62121C4.94826 6.66751 4.94353 6.71419 4.93017 6.75871C4.5368 5.75121 3.64364 5.02398 2.57731 4.843C1.78497 4.75165 1.04041 5.23916 0.807311 6.00193C0.753069 6.19168 0.862919 6.38947 1.05267 6.44371C1.24242 6.49795 1.44021 6.3881 1.49445 6.19835C1.6332 5.76811 2.05893 5.4979 2.50731 5.5555C3.31345 5.71279 3.98087 6.2759 4.2716 7.04407C4.02912 7.08704 3.80694 7.20702 3.63803 7.38621C3.29874 7.74335 3.47374 8.33621 3.82088 8.7405C3.85374 8.78014 3.88195 8.81478 3.9166 8.84764C4.22842 9.13822 4.60964 9.34383 5.02374 9.44478C5.25681 9.35815 5.50156 9.30699 5.74981 9.293L5.86303 9.22907C6.46777 8.58164 6.9516 7.83109 7.2916 7.013C7.18481 6.59522 6.97285 6.21173 6.67588 5.89907V5.89907Z" fill="black"/>
</svg>
