<svg width="48" height="48" viewBox="0 0 48 48" fill="none" xmlns="http://www.w3.org/2000/svg">
<path d="M31.2 19.2C30.24 19.2 29.04 19.44 27.84 20.16C28.56 20.4 29.04 21.12 29.04 22.08C29.04 23.52 28.08 24.48 26.64 24.48C25.92 24.48 25.2 24 24.72 23.28C24.24 24.24 24 25.2 24 26.4C24 30.48 27.12 33.6 31.2 33.6C35.28 33.6 38.4 30.48 38.4 26.4C38.4 22.56 35.28 19.2 31.2 19.2Z" fill="black"/>
<path d="M45.6 9.59999H43.2L41.04 5.51999C41.04 5.03999 40.56 4.79999 40.08 4.79999H27.12C26.64 4.79999 26.16 5.03999 26.16 5.51999L24 9.59999H12V8.39999C12 7.67999 11.52 7.19999 10.8 7.19999H6C5.28 7.19999 4.8 7.67999 4.8 8.39999V9.59999H2.4C0.96 9.59999 0 10.56 0 12V40.8C0 42.24 0.96 43.2 2.4 43.2H45.6C47.04 43.2 48 42.24 48 40.8V12C48 10.56 47.04 9.59999 45.6 9.59999ZM7.2 19.2C6 19.2 4.8 18.24 4.8 16.8C4.8 15.36 5.76 14.4 7.2 14.4C8.64 14.4 9.6 15.36 9.6 16.8C9.6 18.24 8.64 19.2 7.2 19.2ZM31.2 38.4C24.48 38.4 19.2 33.12 19.2 26.4C19.2 19.68 24.48 14.4 31.2 14.4C37.92 14.4 43.2 19.68 43.2 26.4C43.2 33.12 37.92 38.4 31.2 38.4Z" fill="black"/>
</svg>
