<svg width="48" height="49" viewBox="0 0 48 49" fill="none" xmlns="http://www.w3.org/2000/svg">
<path d="M31.2 19.9864C30.24 19.9864 29.04 20.2264 27.84 20.9464C28.56 21.1864 29.04 21.9064 29.04 22.8664C29.04 24.3064 28.08 25.2664 26.64 25.2664C25.92 25.2664 25.2 24.7864 24.72 24.0664C24.24 25.0264 24 25.9864 24 27.1864C24 31.2664 27.12 34.3864 31.2 34.3864C35.28 34.3864 38.4 31.2664 38.4 27.1864C38.4 23.3464 35.28 19.9864 31.2 19.9864Z" fill="white"/>
<path d="M45.6 10.3864H43.2L41.04 6.30636C41.04 5.82636 40.56 5.58636 40.08 5.58636H27.12C26.64 5.58636 26.16 5.82636 26.16 6.30636L24 10.3864H12V9.18636C12 8.46636 11.52 7.98636 10.8 7.98636H6C5.28 7.98636 4.8 8.46636 4.8 9.18636V10.3864H2.4C0.96 10.3864 0 11.3464 0 12.7864V41.5864C0 43.0264 0.96 43.9864 2.4 43.9864H45.6C47.04 43.9864 48 43.0264 48 41.5864V12.7864C48 11.3464 47.04 10.3864 45.6 10.3864ZM7.2 19.9864C6 19.9864 4.8 19.0264 4.8 17.5864C4.8 16.1464 5.76 15.1864 7.2 15.1864C8.64 15.1864 9.6 16.1464 9.6 17.5864C9.6 19.0264 8.64 19.9864 7.2 19.9864ZM31.2 39.1864C24.48 39.1864 19.2 33.9064 19.2 27.1864C19.2 20.4664 24.48 15.1864 31.2 15.1864C37.92 15.1864 43.2 20.4664 43.2 27.1864C43.2 33.9064 37.92 39.1864 31.2 39.1864Z" fill="white"/>
</svg>
