<svg width="62" height="62" viewBox="0 0 62 62" fill="none" xmlns="http://www.w3.org/2000/svg">
<path d="M21.8418 55.3011C20.9157 56.0887 19.5439 56.6409 17.7963 56.9315C17.2519 57.0226 16.6793 57.0942 16.0603 57.133L12.7162 57.3384L12.722 57.3481L12.6368 57.3432L12.4672 57.3539L12.4788 57.3335L9.13278 57.133C8.51182 57.0962 7.93541 57.0245 7.38903 56.9334C5.63947 56.6438 4.26772 56.0906 3.34256 55.3011C2.43581 55.5617 1.79838 56.4587 1.965 57.4808C2.11903 58.434 3.01416 59.0937 3.97903 59.0937H7.04513L7.04706 59.087C7.38128 59.6672 8.00128 60.0625 8.71913 60.0625H16.4691C17.1879 60.0625 17.8089 59.6663 18.1431 59.085L18.1451 59.0937H21.2092C22.1741 59.0937 23.0692 58.434 23.2242 57.4817C23.3899 56.4578 22.7505 55.5597 21.8418 55.3011Z" fill="black"/>
<path d="M57.4097 47.9725C50.4095 40.4347 44.8924 31.7934 41.0039 22.2812H31.4946C35.2689 31.3061 40.411 39.6345 46.8261 47.0367L48.8808 49.4062H58.7417L57.4097 47.9725Z" fill="black"/>
<path d="M17.1114 27.6617C23.5265 20.2595 28.6696 11.9311 32.4428 2.90625H22.9336C19.045 12.4184 13.528 21.0597 6.52784 28.5975L5.19678 30.0312H15.0577L17.1114 27.6617Z" fill="black"/>
<path d="M17.6216 30.0313H22.8974C24.5065 27.095 25.949 24.0677 27.1948 20.9522L27.4379 20.3438H33.9063V4.41754C30.0836 13.3388 24.9453 21.5809 18.5758 28.9298L17.6216 30.0313Z" fill="black"/>
<path d="M42.5567 20.9521C43.8074 24.0802 45.2556 27.1018 46.8589 30.0313H52.9291L51.5971 28.5975C44.9689 21.4607 39.6892 13.3242 35.8442 4.40686V20.3438H42.3126L42.5567 20.9521Z" fill="black"/>
<path d="M11.0428 52.1187C10.7938 52.452 10.6562 52.8646 10.6562 53.2812C10.6562 54.3497 11.5252 55.2187 12.5938 55.2187C13.6623 55.2187 14.5312 54.3497 14.5312 53.2812C14.5312 52.8646 14.3937 52.452 14.1438 52.1187L12.5938 50.0524L11.0428 52.1187Z" fill="black"/>
<path d="M29.39 22.2812H28.7467C26.0023 28.9947 22.4014 35.3264 18.0479 41.1293C18.1166 41.2465 18.1844 41.3617 18.2523 41.4828C19.2946 40.7107 20.2566 40.6875 20.3438 40.6875H21.3125V41.6562C21.3125 42.4845 21.3552 43.1985 21.4239 43.8398L22.2532 42.8032C26.0197 38.0961 28.0938 32.1848 28.0938 26.1562H30.0313C30.0313 32.1848 32.1054 38.0961 35.8709 42.8032L41.1535 49.4062H46.316L45.3618 48.3048C38.6338 40.5422 33.2689 31.7866 29.39 22.2812Z" fill="black"/>
<path d="M9.24769 55.1993C8.92025 54.6317 8.71875 53.9826 8.71875 53.2812C8.71875 52.4491 8.99388 51.6237 9.49278 50.9572L12.5938 46.8226L15.6938 50.9562C16.1936 51.6237 16.4688 52.4491 16.4688 53.2812C16.4688 53.9816 16.2673 54.6307 15.9408 55.1984C17.2854 55.116 21.3125 54.6714 21.3125 52.3125C21.3125 50.7305 20.955 49.6765 20.5414 48.4559C20.0744 47.0764 19.5523 45.5399 19.4118 43.0212C18.5612 43.647 17.4375 45.259 17.4375 49.4062H15.5C15.5 46.3237 16.0977 44.3435 16.8698 43.0551C16.6509 42.5843 16.4 42.1328 16.1219 41.6698C15.5843 40.7747 14.9953 39.7923 14.7085 38.4884C14.1399 39.0735 13.5625 40.0607 13.5625 41.6562V44.5625H11.625V43.5937C11.625 41.9933 11.0476 41.0072 10.479 40.424C10.1922 41.7298 9.60322 42.7122 9.06459 43.6092C8.97741 43.7545 8.89313 43.9037 8.80788 44.051C9.32616 45.3084 9.6875 47.0231 9.6875 49.4062H7.75C7.75 45.2677 6.63109 43.6538 5.77569 43.026C5.63425 45.5419 5.11306 47.0773 4.64613 48.4559C4.23247 49.6765 3.875 50.7305 3.875 52.3125C3.875 54.6811 7.90306 55.1189 9.24769 55.1993Z" fill="black"/>
<path d="M29.0629 33.4868C28.0476 37.3037 26.2545 40.9045 23.7677 44.0132L21.9048 46.3421C22.053 46.8701 22.2148 47.3574 22.3756 47.834C22.5519 48.3542 22.7234 48.8647 22.8687 49.4063H38.6719L34.3581 44.0132C31.8713 40.9045 30.0781 37.3027 29.0629 33.4868Z" fill="black"/>
</svg>
