<svg width="62" height="63" viewBox="0 0 62 63" fill="none" xmlns="http://www.w3.org/2000/svg">
<path d="M21.8418 56.0875C20.9157 56.8751 19.5439 57.4272 17.7963 57.7179C17.2519 57.8089 16.6793 57.8806 16.0603 57.9194L12.7162 58.1247L12.722 58.1344L12.6368 58.1296L12.4672 58.1402L12.4788 58.1199L9.13278 57.9194C8.51182 57.8826 7.93541 57.8109 7.38903 57.7198C5.63947 57.4302 4.26772 56.877 3.34256 56.0875C2.43581 56.3481 1.79838 57.2451 1.965 58.2672C2.11903 59.2204 3.01416 59.8801 3.97903 59.8801H7.04513L7.04706 59.8733C7.38128 60.4536 8.00128 60.8489 8.71913 60.8489H16.4691C17.1879 60.8489 17.8089 60.4527 18.1431 59.8714L18.1451 59.8801H21.2092C22.1741 59.8801 23.0692 59.2204 23.2242 58.2681C23.3899 57.2442 22.7505 56.3461 21.8418 56.0875Z" fill="white"/>
<path d="M57.4092 48.7589C50.409 41.221 44.892 32.5798 41.0034 23.0676H31.4941C35.2684 32.0925 40.4105 40.4208 46.8256 47.8231L48.8803 50.1926H58.7412L57.4092 48.7589Z" fill="white"/>
<path d="M17.1119 28.4481C23.527 21.0458 28.6701 12.7175 32.4433 3.69263H22.9341C19.0455 13.2048 13.5285 21.846 6.52833 29.3839L5.19727 30.8176H15.0582L17.1119 28.4481Z" fill="white"/>
<path d="M17.6221 30.8177H22.8979C24.507 27.8814 25.9495 24.854 27.1953 21.7385L27.4384 21.1302H33.9068V5.20392C30.0841 14.1251 24.9458 22.3673 18.5763 29.7162L17.6221 30.8177Z" fill="white"/>
<path d="M42.5562 21.7385C43.8069 24.8666 45.2552 27.8882 46.8584 30.8177H52.9286L51.5966 29.3839C44.9684 22.2471 39.6887 14.1106 35.8438 5.19327V21.1302H42.3121L42.5562 21.7385Z" fill="white"/>
<path d="M11.0428 52.9051C10.7938 53.2383 10.6562 53.651 10.6562 54.0676C10.6562 55.1361 11.5252 56.0051 12.5938 56.0051C13.6623 56.0051 14.5312 55.1361 14.5312 54.0676C14.5312 53.651 14.3937 53.2383 14.1438 52.9051L12.5938 50.8387L11.0428 52.9051Z" fill="white"/>
<path d="M29.39 23.0676H28.7467C26.0023 29.7811 22.4014 36.1128 18.0479 41.9156C18.1166 42.0328 18.1844 42.1481 18.2523 42.2692C19.2946 41.4971 20.2566 41.4739 20.3438 41.4739H21.3125V42.4426C21.3125 43.2709 21.3552 43.9849 21.4239 44.6262L22.2532 43.5896C26.0197 38.8825 28.0938 32.9712 28.0938 26.9426H30.0313C30.0313 32.9712 32.1054 38.8825 35.8709 43.5896L41.1535 50.1926H46.316L45.3618 49.0912C38.6338 41.3286 33.2689 32.573 29.39 23.0676Z" fill="white"/>
<path d="M9.24769 55.9857C8.92025 55.418 8.71875 54.769 8.71875 54.0676C8.71875 53.2354 8.99388 52.4101 9.49278 51.7436L12.5938 47.6089L15.6938 51.7426C16.1936 52.4101 16.4688 53.2354 16.4688 54.0676C16.4688 54.768 16.2673 55.4171 15.9408 55.9847C17.2854 55.9024 21.3125 55.4578 21.3125 53.0988C21.3125 51.5169 20.955 50.4629 20.5414 49.2423C20.0744 47.8628 19.5523 46.3263 19.4118 43.8076C18.5612 44.4334 17.4375 46.0454 17.4375 50.1926H15.5C15.5 47.11 16.0977 45.1299 16.8698 43.8415C16.6509 43.3707 16.4 42.9192 16.1219 42.4562C15.5843 41.561 14.9953 40.5787 14.7085 39.2748C14.1399 39.8599 13.5625 40.8471 13.5625 42.4426V45.3488H11.625V44.3801C11.625 42.7797 11.0476 41.7935 10.479 41.2103C10.1922 42.5162 9.60322 43.4985 9.06459 44.3956C8.97741 44.5409 8.89313 44.6901 8.80788 44.8373C9.32616 46.0948 9.6875 47.8095 9.6875 50.1926H7.75C7.75 46.0541 6.63109 44.4402 5.77569 43.8124C5.63425 46.3283 5.11306 47.8637 4.64613 49.2423C4.23247 50.4629 3.875 51.5169 3.875 53.0988C3.875 55.4674 7.90306 55.9053 9.24769 55.9857Z" fill="white"/>
<path d="M29.0624 34.2732C28.0471 38.09 26.254 41.6909 23.7672 44.7996L21.9043 47.1285C22.0525 47.6564 22.2143 48.1437 22.3751 48.6203C22.5514 49.1406 22.7229 49.6511 22.8682 50.1926H38.6714L34.3576 44.7996C31.8708 41.6909 30.0776 38.0891 29.0624 34.2732Z" fill="white"/>
</svg>
