<svg width="15" height="15" viewBox="0 0 15 15" fill="none" xmlns="http://www.w3.org/2000/svg">
<path d="M14.5353 12.1133L11.801 9.37891C11.6642 9.26953 11.5002 9.1875 11.3361 9.1875H10.8986C11.6369 8.23047 12.1017 7.02734 12.1017 5.6875C12.1017 2.57031 9.53143 0 6.41424 0C3.26971 0 0.72674 2.57031 0.72674 5.6875C0.72674 8.83203 3.26971 11.375 6.41424 11.375C7.72674 11.375 8.92986 10.9375 9.91424 10.1719V10.6367C9.91424 10.8008 9.96893 10.9648 10.1056 11.1016L12.8127 13.8086C13.0861 14.082 13.4963 14.082 13.7424 13.8086L14.508 13.043C14.7814 12.7969 14.7814 12.3867 14.5353 12.1133ZM6.41424 9.1875C4.47283 9.1875 2.91424 7.62891 2.91424 5.6875C2.91424 3.77344 4.47283 2.1875 6.41424 2.1875C8.3283 2.1875 9.91424 3.77344 9.91424 5.6875C9.91424 7.62891 8.3283 9.1875 6.41424 9.1875Z" fill="white"/>
</svg>
