<svg width="546" height="330" viewBox="0 0 546 330" fill="none" xmlns="http://www.w3.org/2000/svg">
<path d="M336.772 45.4347C344.049 45.4347 349.554 47.0768 353.289 50.3609C357.024 53.5806 358.891 57.895 358.891 63.3041C358.891 64.1413 358.763 65.5257 358.505 67.4576C357.604 72.2872 355.511 76.4728 352.227 80.0145C348.942 83.4918 344.692 85.9388 339.477 87.3554L350.488 113.822H329.528L320.062 88.6111H318.13L313.783 113.822H294.755L306.732 45.4347H336.772ZM320.448 75.861H329.721C335.001 75.861 338.092 73.4785 338.994 68.7133C339.058 68.3269 339.09 67.7795 339.09 67.0712C339.09 63.3363 336.869 61.4689 332.425 61.4689H323.056L320.448 75.861ZM388.19 58.9575C392.246 58.9575 395.595 59.7946 398.235 61.4689C400.94 63.1431 402.711 65.397 403.548 68.2303L405.093 59.6337H424.025L414.366 113.822H395.531L397.076 105.225C395.273 108.058 392.826 110.312 389.735 111.986C386.644 113.661 383.167 114.498 379.303 114.498C373.443 114.498 368.839 112.63 365.491 108.895C362.206 105.096 360.564 99.848 360.564 93.1509C360.564 90.8327 360.822 88.1282 361.337 85.0372C362.303 79.6925 364.106 75.0561 366.746 71.1281C369.386 67.2 372.574 64.2057 376.309 62.145C380.044 60.02 384.004 58.9575 388.19 58.9575ZM392.44 75.5713C389.477 75.5713 386.902 76.5694 384.712 78.5656C382.587 80.4974 381.203 83.202 380.559 86.6793C380.366 87.6452 380.269 88.5789 380.269 89.4805C380.269 92.185 381.01 94.2778 382.491 95.7589C383.972 97.1756 385.968 97.8839 388.479 97.8839C391.313 97.8839 393.824 96.8858 396.014 94.8896C398.267 92.8934 399.684 90.1566 400.264 86.6793C400.457 85.7134 400.553 84.7797 400.553 83.8781C400.553 81.238 399.813 79.2096 398.332 77.7929C396.851 76.3118 394.887 75.5713 392.44 75.5713ZM458.57 58.9575C465.847 58.9575 471.61 60.9215 475.86 64.8496C480.11 68.7133 482.267 74.0902 482.332 80.9804H462.241C462.047 79.113 461.436 77.6963 460.405 76.7304C459.439 75.7001 458.023 75.1849 456.155 75.1849C453.837 75.1849 451.777 76.1508 449.974 78.0826C448.235 80.0145 447.011 82.88 446.303 86.6793C446.045 88.4823 445.917 89.7058 445.917 90.3498C445.917 92.9256 446.464 94.8896 447.559 96.2419C448.718 97.5298 450.231 98.1737 452.099 98.1737C453.966 98.1737 455.576 97.6585 456.928 96.6282C458.28 95.5979 459.343 94.1812 460.116 92.3782H480.303C477.792 99.2684 473.799 104.678 468.326 108.606C462.917 112.534 456.703 114.498 449.684 114.498C442.6 114.498 436.934 112.501 432.684 108.509C428.498 104.452 426.405 98.882 426.405 91.7987C426.405 90.1244 426.631 87.8706 427.081 85.0372C428.047 79.6925 430.011 75.0561 432.973 71.1281C435.936 67.2 439.638 64.2057 444.081 62.145C448.525 60.02 453.354 58.9575 458.57 58.9575ZM518.859 58.9575C526.071 58.9575 531.738 60.8572 535.859 64.6564C539.981 68.4557 542.041 73.6072 542.041 80.1111C542.041 81.7209 541.88 83.5884 541.558 85.7134C540.979 87.9028 540.528 89.3839 540.206 90.1566H504.467C504.403 90.6718 504.37 91.4123 504.37 92.3782C504.37 97.0146 506.528 99.3328 510.842 99.3328C512.709 99.3328 514.319 98.882 515.672 97.9805C517.088 97.079 518.151 95.8877 518.859 94.4066H538.95C536.761 100.331 532.994 105.16 527.649 108.895C522.304 112.63 516.122 114.498 509.103 114.498C502.02 114.498 496.418 112.534 492.296 108.606C488.175 104.678 486.115 99.2684 486.115 92.3782C486.115 90.3176 486.308 88.1282 486.694 85.81C487.66 80.3365 489.656 75.5713 492.683 71.5144C495.774 67.4576 499.573 64.3666 504.081 62.2416C508.588 60.0522 513.514 58.9575 518.859 58.9575ZM522.916 82.2361C523.045 81.7209 523.109 81.0126 523.109 80.1111C523.109 78.0505 522.465 76.505 521.177 75.4747C519.889 74.38 518.247 73.8326 516.251 73.8326C513.74 73.8326 511.583 74.541 509.78 75.9576C507.976 77.3743 506.689 79.4671 505.916 82.2361H522.916Z" fill="white"/>
<path d="M329.133 219.149C337.071 219.149 343.358 221.292 347.995 225.577C352.631 229.792 354.984 235.657 355.055 243.174H333.137C332.926 241.137 332.259 239.591 331.135 238.538C330.081 237.414 328.536 236.852 326.499 236.852C323.97 236.852 321.722 237.905 319.755 240.013C317.858 242.12 316.523 245.246 315.75 249.391C315.47 251.358 315.329 252.693 315.329 253.395C315.329 256.205 315.926 258.348 317.12 259.823C318.385 261.228 320.036 261.93 322.073 261.93C324.11 261.93 325.866 261.368 327.341 260.244C328.817 259.12 329.976 257.575 330.819 255.608H352.842C350.102 263.124 345.747 269.025 339.775 273.31C333.875 277.596 327.096 279.738 319.439 279.738C311.711 279.738 305.529 277.561 300.893 273.205C296.327 268.779 294.044 262.703 294.044 254.976C294.044 253.149 294.29 250.69 294.781 247.6C295.835 241.769 297.978 236.711 301.209 232.426C304.441 228.141 308.48 224.874 313.327 222.626C318.174 220.308 323.443 219.149 329.133 219.149ZM427.884 219.887L417.452 279.001H396.694L398.38 269.201C396.062 272.362 393.111 274.891 389.529 276.788C386.016 278.614 382.117 279.527 377.832 279.527C372.142 279.527 367.717 277.877 364.555 274.575C361.394 271.273 359.814 266.672 359.814 260.771C359.814 258.664 360.024 256.451 360.446 254.133L366.557 219.887H387.105L381.52 251.604C381.38 252.236 381.31 253.114 381.31 254.238C381.31 256.837 382.012 258.874 383.417 260.35C384.892 261.755 386.929 262.457 389.529 262.457C392.62 262.457 395.219 261.474 397.326 259.507C399.504 257.54 400.909 254.765 401.541 251.182V251.709L407.126 219.887H427.884ZM457.892 230.951C460.913 227.438 464.32 224.628 468.114 222.521C471.977 220.413 475.911 219.36 479.915 219.36L475.911 241.488H470.01C465.374 241.488 461.721 242.401 459.052 244.228C456.452 245.984 454.766 249.075 453.994 253.5L449.463 279.001H428.81L439.136 219.887H459.895L457.892 230.951ZM513.653 219.149C521.521 219.149 527.702 221.221 532.198 225.366C536.694 229.511 538.942 235.13 538.942 242.226C538.942 243.982 538.767 246.019 538.415 248.337C537.783 250.726 537.291 252.341 536.94 253.184H497.952C497.882 253.746 497.847 254.554 497.847 255.608C497.847 260.666 500.2 263.195 504.907 263.195C506.944 263.195 508.7 262.703 510.175 261.719C511.721 260.736 512.88 259.436 513.653 257.821H535.57C533.182 264.284 529.072 269.552 523.242 273.627C517.411 277.701 510.667 279.738 503.01 279.738C495.283 279.738 489.171 277.596 484.675 273.31C480.179 269.025 477.931 263.124 477.931 255.608C477.931 253.36 478.142 250.971 478.564 248.443C479.617 242.471 481.795 237.273 485.097 232.847C488.469 228.422 492.613 225.05 497.531 222.732C502.448 220.343 507.822 219.149 513.653 219.149ZM518.078 244.544C518.219 243.982 518.289 243.209 518.289 242.226C518.289 239.978 517.587 238.292 516.182 237.168C514.777 235.973 512.985 235.376 510.808 235.376C508.068 235.376 505.715 236.149 503.748 237.695C501.781 239.24 500.376 241.523 499.533 244.544H518.078Z" fill="url(#paint0_linear)"/>
<path d="M324.43 144.778C324.115 144.733 323.664 144.711 323.078 144.711C321.501 144.711 320.283 145.026 319.427 145.657C318.571 146.243 317.962 147.257 317.601 148.7H323.754L321.794 159.789H315.573L310.84 186.631H297.52L302.253 159.789H297.993L299.887 148.7H304.214C305.115 143.787 307.234 140 310.57 137.341C313.95 134.681 318.323 133.351 323.687 133.351C324.273 133.351 325.197 133.397 326.459 133.487L324.43 144.778ZM347.348 148.227C350.729 148.227 353.704 148.88 356.274 150.187C358.888 151.449 360.916 153.298 362.359 155.732C363.801 158.166 364.522 161.051 364.522 164.386C364.522 165.784 364.387 167.271 364.117 168.849C363.441 172.59 362.021 175.836 359.857 178.585C357.693 181.335 355.011 183.453 351.811 184.941C348.611 186.383 345.162 187.105 341.466 187.105C337.995 187.105 334.953 186.474 332.338 185.211C329.724 183.904 327.673 182.034 326.185 179.599C324.743 177.12 324.022 174.213 324.022 170.877C324.022 169.48 324.157 168.015 324.427 166.482C325.103 162.741 326.523 159.496 328.687 156.746C330.896 153.996 333.623 151.9 336.868 150.458C340.114 148.97 343.607 148.227 347.348 148.227ZM345.658 159.721C343.855 159.721 342.232 160.397 340.79 161.749C339.347 163.102 338.378 165.062 337.883 167.632C337.747 168.443 337.68 169.164 337.68 169.795C337.68 171.689 338.153 173.131 339.1 174.123C340.091 175.114 341.353 175.61 342.886 175.61C344.689 175.61 346.312 174.934 347.754 173.582C349.197 172.23 350.166 170.246 350.662 167.632C350.797 166.82 350.864 166.099 350.864 165.468C350.864 163.575 350.369 162.155 349.377 161.208C348.43 160.217 347.191 159.721 345.658 159.721ZM384.852 155.799C386.79 153.546 388.977 151.742 391.411 150.39C393.89 149.038 396.414 148.362 398.983 148.362L396.414 162.561H392.628C389.653 162.561 387.309 163.147 385.596 164.319C383.928 165.446 382.846 167.429 382.35 170.269L379.443 186.631H366.191L372.817 148.7H386.137L384.852 155.799ZM426.485 172.027C426.44 172.252 426.417 172.568 426.417 172.973C426.417 173.785 426.643 174.371 427.093 174.731C427.544 175.092 428.288 175.272 429.325 175.272H432.976L430.88 186.631H425.471C417.042 186.631 412.827 183.048 412.827 175.881C412.827 174.619 412.962 173.244 413.233 171.756L415.396 159.789H410.46L412.421 148.7H417.357L418.98 139.504H432.232L430.609 148.7H437.506L435.545 159.789H428.649L426.485 172.027ZM469.882 148.362C473.578 148.362 476.418 149.421 478.401 151.54C480.429 153.613 481.444 156.543 481.444 160.329C481.444 161.682 481.308 163.102 481.038 164.589L477.184 186.631H463.932L467.515 166.28C467.65 165.603 467.718 164.995 467.718 164.454C467.718 162.786 467.245 161.501 466.298 160.6C465.396 159.698 464.112 159.248 462.444 159.248C460.551 159.248 458.928 159.811 457.576 160.938C456.223 162.065 455.299 163.665 454.804 165.739L451.152 186.631H437.832L446.622 136.597H459.942L456.697 154.988C458.184 152.96 460.055 151.359 462.309 150.187C464.608 148.97 467.132 148.362 469.882 148.362ZM508.12 148.227C513.169 148.227 517.136 149.556 520.021 152.216C522.905 154.875 524.348 158.481 524.348 163.034C524.348 164.161 524.235 165.468 524.01 166.956C523.604 168.488 523.289 169.525 523.063 170.066H498.046C498.001 170.427 497.978 170.945 497.978 171.621C497.978 174.866 499.488 176.489 502.508 176.489C503.816 176.489 504.943 176.174 505.889 175.543C506.881 174.912 507.625 174.078 508.12 173.041H522.184C520.652 177.188 518.015 180.569 514.273 183.183C510.532 185.797 506.205 187.105 501.291 187.105C496.333 187.105 492.411 185.73 489.527 182.98C486.642 180.231 485.199 176.444 485.199 171.621C485.199 170.179 485.335 168.646 485.605 167.023C486.281 163.192 487.678 159.856 489.797 157.016C491.961 154.177 494.62 152.013 497.776 150.525C500.931 148.993 504.379 148.227 508.12 148.227ZM510.96 164.522C511.05 164.161 511.095 163.665 511.095 163.034C511.095 161.592 510.645 160.51 509.743 159.789C508.842 159.022 507.692 158.639 506.295 158.639C504.537 158.639 503.027 159.135 501.765 160.127C500.503 161.118 499.601 162.583 499.06 164.522H510.96Z" fill="white"/>
<mask id="mask0" mask-type="alpha" maskUnits="userSpaceOnUse" x="0" y="0" width="198" height="330">
<g clip-path="url(#clip0)">
<path d="M82.6802 214.862C109.144 199.46 130.713 176.742 144.138 152.409C169.355 152.684 192.67 181.009 185.473 224.431C167.765 233.359 150.33 232.45 150.33 232.45C150.33 232.45 145.579 207.497 132.504 208.138C119.43 208.779 121.594 232.348 121.594 232.348C121.594 232.348 99.609 231.159 87.9245 249.866C90.7895 226.05 82.6802 214.862 82.6802 214.862Z" fill="#111111"/>
<path d="M120.757 40.4666C90.8975 7.17273 49.1465 -1.35905 24.669 13.4416C-7.53376 35.1695 2.15212 78.5195 11.7845 100.212C14.1509 97.0732 29.1481 84.2484 38.9834 79.2327C43.0206 89.6132 31.3753 119.401 26.0903 124.697C29.2798 128.067 41.0743 137.311 44.8898 143.169C50.6284 136.843 76.0551 115.699 72.3584 91.7012C107.942 108.091 148.853 71.7313 120.757 40.4666ZM90.6568 58.8172C83.7832 68.7251 67.1199 60.928 61.994 53.0188C61.3966 52.1414 61.541 50.9757 62.3111 50.2328C64.9083 47.6875 68.9298 41.2945 71.0848 35.8996C71.4881 34.8724 72.6225 34.3634 73.6479 34.7162C96.3577 42.4686 95.2719 52.1935 90.6568 58.8172Z" fill="#111111"/>
<path d="M135.995 63.3952C135.995 63.3952 138.451 108.359 80.8055 104.636C83.7385 113.056 65.0779 143.691 50.3618 151.968C50.3618 151.968 57.7538 163.947 60.1101 170.884C60.1101 170.884 78.6765 158.892 83.3848 152.112C83.7543 159.65 75.3014 177.443 68.005 182.838C70.2135 186.76 71.6235 184.676 78.5024 206.755C170.339 136.768 147.283 88.0285 135.995 63.3952ZM113.278 139.817C110.443 133.407 104.929 128.892 104.929 128.892C104.929 128.892 109.645 127.402 114.427 122.13C117.822 118.387 121.699 116.232 124.311 118.119C127.5 120.431 119.642 135.979 113.278 139.817Z" fill="#111111"/>
<path d="M187.714 234.144C187.714 234.144 149.107 248.63 122.516 240.866C93.5965 247.321 85.6957 266.095 86.0725 278.921C86.2911 286.467 94.3976 325.361 137.14 323.265L133.295 296.252C133.295 296.252 120.872 299.884 120.355 289.331C118.487 271.791 142.673 271.613 142.673 271.613C142.673 271.613 147.53 303.866 149.926 321.883C203.963 313.693 198.352 255.787 187.714 234.144ZM165.569 291.396C164.194 283.907 162.094 271.921 162.094 271.921C162.094 271.921 174.039 268.816 176.016 278.29C177.267 284.274 172.106 291.075 165.569 291.396Z" fill="#111111"/>
</g>
</mask>
<g mask="url(#mask0)">
<rect x="-44.0637" y="-5.63519" width="273" height="355" fill="url(#paint1_linear)"/>
</g>
<defs>
<linearGradient id="paint0_linear" x1="416.719" y1="163.001" x2="416.719" y2="321.474" gradientUnits="userSpaceOnUse">
<stop stop-color="#FF6E9F"/>
<stop offset="1" stop-color="#F980B3"/>
</linearGradient>
<linearGradient id="paint1_linear" x1="-44.0637" y1="349.365" x2="228.936" y2="-5.63521" gradientUnits="userSpaceOnUse">
<stop stop-color="#FB7BAD"/>
<stop offset="1" stop-color="#FD76A7"/>
</linearGradient>
<clipPath id="clip0">
<rect y="8.90833" width="181.948" height="320.694" transform="rotate(-2.80637 0 8.90833)" fill="white"/>
</clipPath>
</defs>
</svg>
