<svg width="13" height="15" viewBox="0 0 13 15" fill="none" xmlns="http://www.w3.org/2000/svg">
<g clip-path="url(#clip0)">
<path d="M6.28921 0.688721C2.91705 0.688721 0.173828 3.68904 0.173828 7.37724C0.173828 11.0654 2.91705 14.0658 6.28921 14.0658C9.66137 14.0658 12.4046 11.0654 12.4046 7.37724C12.4046 3.68904 9.66137 0.688721 6.28921 0.688721ZM9.1976 10.8368C9.09822 10.9455 8.96777 11.0002 8.83732 11.0002C8.70687 11.0002 8.57632 10.9455 8.47704 10.8368L5.92893 8.05002C5.8331 7.94581 5.77963 7.80416 5.77963 7.65597V4.03298C5.77963 3.72477 6.00787 3.47564 6.28921 3.47564C6.57055 3.47564 6.7988 3.72477 6.7988 4.03298V7.42521L9.1976 10.0487C9.39683 10.2667 9.39683 10.6189 9.1976 10.8368Z" fill="#EE77A0"/>
</g>
<defs>
<clipPath id="clip0">
<rect x="0.173828" y="0.688721" width="12.2308" height="13.377" fill="white"/>
</clipPath>
</defs>
</svg>
