<svg width="11" height="14" viewBox="0 0 11 14" fill="none" xmlns="http://www.w3.org/2000/svg">
<path d="M5.11952 6.58393C6.61629 6.58393 7.82978 5.11008 7.82978 3.29198C7.82978 1.47385 7.43137 0 5.11952 0C2.80766 0 2.40918 1.47385 2.40918 3.29198C2.40918 5.11008 3.62267 6.58393 5.11952 6.58393Z" fill="#111111"/>
<path d="M0.000532967 11.6104C7.14041e-05 11.4996 -0.000390159 11.5792 0.000532967 11.6104V11.6104Z" fill="#111111"/>
<path d="M10.2383 11.6971C10.2397 11.6668 10.2388 11.4866 10.2383 11.6971V11.6971Z" fill="#111111"/>
<path d="M10.2328 11.4776C10.1827 8.3104 9.76901 7.40793 6.60373 6.83667C6.60373 6.83667 6.15816 7.40443 5.11965 7.40443C4.08113 7.40443 3.63549 6.83667 3.63549 6.83667C0.504746 7.4017 0.0659533 8.29079 0.00825792 11.3747C0.00352689 11.6265 0.00133448 11.6397 0.000488281 11.6105C0.000680599 11.6653 0.000911295 11.7666 0.000911295 11.9433C0.000911295 11.9433 0.75449 13.4624 5.11965 13.4624C9.48473 13.4624 10.2384 11.9433 10.2384 11.9433C10.2384 11.8297 10.2385 11.7508 10.2386 11.6971C10.2377 11.7152 10.236 11.6802 10.2328 11.4776Z" fill="#111111"/>
</svg>
