<svg width="66" height="66" viewBox="0 0 66 66" fill="none" xmlns="http://www.w3.org/2000/svg">
<g clip-path="url(#clip0)">
<path d="M41.3218 19.2751C43.2137 17.487 45.7199 16.4936 48.3231 16.5C49.6408 16.5 52.8804 17.4908 54.0379 18.2449L66.0004 25.8632V23.6698C66.0004 23.4466 65.928 23.2295 65.7941 23.051L56.354 10.4646C55.5984 9.45677 54.6185 8.63874 53.492 8.07534C52.3654 7.51195 51.1231 7.21867 49.8635 7.21875C44.7115 7.21875 41.25 10.5342 41.25 15.4688V17.5312C41.25 17.5456 41.25 17.5599 41.2509 17.5742L41.3218 19.2751Z" fill="black"/>
<path d="M50.5313 35.7872C49.7538 34.8114 49.0512 33.8863 48.4511 33.0363C46.3252 36.3154 43.8557 39.9259 42.4064 41.3752C42.3549 41.4268 42.3019 41.4776 42.249 41.5286L42.2813 42.3028V45.1373L39.3307 53.0546L36.3958 55.9896C36.285 56.1004 36.2009 56.235 36.1499 56.3832C36.0989 56.5314 36.0823 56.6892 36.1015 56.8448C36.1206 57.0003 36.175 57.1495 36.2604 57.2809C36.3458 57.4123 36.4601 57.5224 36.5945 57.6031C37.7841 58.3168 39.2479 58.8216 40.7432 58.8216C41.5559 58.8271 42.3613 58.6678 43.1107 58.3531C43.86 58.0385 44.5378 57.5752 45.103 56.9912C45.998 56.0963 46.7753 54.9199 47.5272 53.7822C48.2024 52.7606 48.8401 51.7956 49.4784 51.1575C50.0056 50.6373 50.5932 50.1819 51.2285 49.8012C51.9884 49.3407 52.6914 48.7924 53.323 48.1674C53.6157 47.8787 53.8472 47.5339 54.0035 47.1536C54.1598 46.7733 54.2378 46.3653 54.2327 45.9542C54.227 43.7779 52.1645 41.4244 50.5313 39.7904V35.7872Z" fill="black"/>
<path d="M65.523 28.0052L52.9183 19.9769C52.1305 19.4549 49.2378 18.5625 48.3231 18.5625C47.2545 18.5596 46.1958 18.7678 45.2079 19.1752C44.22 19.5826 43.3223 20.1811 42.5663 20.9363C37.0439 26.4234 23.5849 39.7124 17.8913 44.5921C16.0909 46.1356 10.2383 48.6336 7.98394 49.5276L0.885459 50.5417C0.639721 50.5768 0.414887 50.6994 0.252233 50.8869C0.0895798 51.0744 2.2216e-05 51.3143 2.08063e-06 51.5625C-0.000812697 52.3766 0.23769 53.1729 0.685851 53.8525C1.13401 54.5321 1.77205 55.0649 2.52063 55.3847L3.82401 55.9443C5.20264 56.535 6.68501 56.8455 8.1848 56.8576C9.6846 56.8698 11.1718 56.5834 12.5599 56.0152C13.6376 55.8552 14.7382 55.96 15.7664 56.3206C17.0745 56.7782 18.2172 57.0073 19.1852 57.0073C19.8412 57.0247 20.4922 56.8886 21.0862 56.6099C23.0615 55.6223 23.544 53.8676 24.1026 51.8359C24.2767 51.2026 24.4567 50.5477 24.6973 49.8262C25.0996 48.619 28.7933 46.8434 31.7613 45.4167C35.2517 43.739 38.861 42.004 40.9482 39.9168C42.5993 38.2657 45.936 33.1627 47.7783 30.2673C47.8502 30.1546 47.9498 30.0622 48.0676 29.999C48.1854 29.9358 48.3175 29.9039 48.4511 29.9064C48.5848 29.9089 48.7156 29.9457 48.831 30.0133C48.9463 30.0809 49.0424 30.177 49.1099 30.2924C51.6954 34.5746 58.7559 42.2935 64.2235 48.0148C64.3659 48.1636 64.5495 48.2663 64.7507 48.3099C64.9519 48.3534 65.1616 48.3357 65.3527 48.259C65.5438 48.1824 65.7075 48.0503 65.8229 47.8798C65.9383 47.7092 66 47.5081 66 47.3022V28.875C66 28.7016 65.9564 28.531 65.873 28.379C65.7896 28.2269 65.6693 28.0984 65.523 28.0052ZM41.25 26.8125C41.046 26.8125 40.8467 26.752 40.6771 26.6387C40.5075 26.5254 40.3753 26.3644 40.2973 26.1759C40.2192 25.9875 40.1988 25.7801 40.2386 25.5801C40.2784 25.38 40.3766 25.1963 40.5208 25.0521C40.665 24.9079 40.8488 24.8096 41.0488 24.7698C41.2489 24.7301 41.4562 24.7505 41.6446 24.8285C41.8331 24.9066 41.9941 25.0388 42.1075 25.2083C42.2208 25.3779 42.2813 25.5773 42.2813 25.7813C42.2813 26.0548 42.1726 26.3171 41.9792 26.5105C41.7858 26.7039 41.5235 26.8125 41.25 26.8125ZM45.375 25.7813C44.9671 25.7813 44.5683 25.6603 44.2291 25.4337C43.89 25.2071 43.6256 24.8849 43.4695 24.5081C43.3134 24.1312 43.2726 23.7165 43.3521 23.3164C43.4317 22.9163 43.6281 22.5488 43.9166 22.2604C44.205 21.9719 44.5725 21.7755 44.9726 21.6959C45.3727 21.6163 45.7874 21.6572 46.1643 21.8133C46.5412 21.9694 46.8633 22.2337 47.0899 22.5729C47.3165 22.9121 47.4375 23.3109 47.4375 23.7188C47.4375 24.2658 47.2202 24.7904 46.8334 25.1772C46.4466 25.564 45.922 25.7813 45.375 25.7813Z" fill="black"/>
</g>
<defs>
<clipPath id="clip0">
<rect width="66" height="66" fill="white"/>
</clipPath>
</defs>
</svg>
