<svg width="57" height="57" viewBox="0 0 57 57" fill="none" xmlns="http://www.w3.org/2000/svg">
<path d="M11.4946 42.1305C12.2644 44.2893 14.3083 45.8479 16.7282 45.8479C19.148 45.8479 21.192 44.2893 21.9617 42.1305H11.4946Z" fill="black"/>
<path d="M35.0386 42.1305C35.8082 44.2893 37.8522 45.8479 40.272 45.8479C42.6918 45.8479 44.7358 44.2893 45.5055 42.1305H35.0386Z" fill="black"/>
<path d="M40.2721 34.6956C37.8522 34.6956 35.8083 36.2542 35.0386 38.413H45.5057C44.7359 36.2542 42.6921 34.6956 40.2721 34.6956Z" fill="black"/>
<path d="M53.2826 16.4512V5.57609C53.2826 2.50132 50.7813 0 47.7066 0H9.29345C6.21868 0 3.71736 2.50132 3.71736 5.57609V16.4512C1.55859 17.2209 0 19.2649 0 21.6848V51.4239C0 54.4987 2.50132 57 5.57609 57H51.4239C54.4987 57 57 54.4987 57 51.4239V21.6848C57 19.2649 55.4414 17.2209 53.2826 16.4512ZM16.7283 49.5652C11.6036 49.5652 7.43483 45.3964 7.43483 40.2717C7.43483 35.1471 11.6036 30.9783 16.7283 30.9783C21.8529 30.9783 26.0217 35.1471 26.0217 40.2717C26.0217 45.3964 21.8529 49.5652 16.7283 49.5652ZM7.43483 25.4022C7.43483 24.3757 8.267 23.5434 9.29356 23.5434C10.3201 23.5434 11.1523 24.3756 11.1523 25.4022C11.1523 26.4286 10.3201 27.2609 9.29356 27.2609C8.267 27.2609 7.43483 26.4286 7.43483 25.4022ZM40.2717 49.5652C35.1471 49.5652 30.9783 45.3964 30.9783 40.2717C30.9783 35.1471 35.1471 30.9783 40.2717 30.9783C45.3964 30.9783 49.5652 35.1471 49.5652 40.2717C49.5652 45.3964 45.3964 49.5652 40.2717 49.5652ZM47.7066 27.2609H16.7283C15.7022 27.2609 14.8695 26.429 14.8695 25.4022C14.8695 24.3754 15.7022 23.5434 16.7283 23.5434H47.7066C48.7327 23.5434 49.5653 24.3754 49.5653 25.4022C49.5652 26.429 48.7327 27.2609 47.7066 27.2609ZM49.5652 16.1087H44.2437L13.5119 7.50385C12.5282 7.22553 11.4983 7.80399 11.2212 8.79258C10.9441 9.78062 11.5213 10.8068 12.5099 11.0833L30.4581 16.1088H7.43483V5.57609C7.43483 4.55121 8.26867 3.71736 9.29356 3.71736H47.7066C48.7314 3.71736 49.5653 4.55121 49.5653 5.57609V16.1087H49.5652Z" fill="black"/>
<path d="M16.7282 34.6956C14.3082 34.6956 12.2644 36.2542 11.4946 38.413H21.9617C21.192 36.2542 19.148 34.6956 16.7282 34.6956Z" fill="black"/>
</svg>
